<?xml version="1.0" encoding="utf-8"?>
<!-- Generator: Adobe Illustrator 19.2.0, SVG Export Plug-In . SVG Version: 6.00 Build 0)  -->
<svg version="1.1" id="Layer_1" xmlns="http://www.w3.org/2000/svg" xmlns:xlink="http://www.w3.org/1999/xlink" x="0px" y="0px"
	 viewBox="0 0 850 330" style="enable-background:new 0 0 850 330;" xml:space="preserve">
<path d="M789.1,226c6.2-17.8,22.7-22.7,34.2-19.6c14.9,3.9,22.3,15.9,21.6,28.7c-0.7,14.1-9.4,23.8-22.7,26.6
	c-14.8,3.2-28.3-6.1-32.4-18.2c-33.9,0-67.8,0-101.9,0c0,13.2,0,26.3,0,39.3c3.1,0.6,25.8,0.8,33.3,0.3c3-8.9,9-15.4,18.1-18.7
	c5.6-2.1,11.5-2.1,17.3-0.4c12.7,3.9,21.8,15.5,20.2,30.5c-1.3,12.3-9.9,21.6-21.6,24.3c-14.3,3.3-27.4-3.9-33.5-18
	c-11.1,0-22.3,0-33.9,0c0,7.9,0,15.7,0,23.6c-41.9,0-83.5,0-125.3,0c-0.5-3.2-0.2-6.5-0.2-9.7c-0.1-3.2,0-6.4,0-9.5
	c0-3.3-0.1-6.6-0.2-10.2c-7.5,9.4-16.7,15.9-26.8,21.1c-4.9,2.5-10.3,3.9-15.6,5.2c-5.2,1.3-10.5,2.2-15.7,3.2c-0.6,0.1-1.3,0-2,0
	c-3,0-6.1,0-9.1,0.1c-21,0.2-42,0.5-63.1,0.7c-1.3,0-2.6,0-4.3,0c0-9,0-17.8,0-27.4c-1.3,1.2-2.1,2-2.9,2.7
	c-7.4,7.7-16,13.7-25.7,18.1c-4.7,2.1-9.9,3.4-14.9,4.9c-2.1,0.7-4.3,1.2-6.5,1.6c-4.9,1-9.8,1.9-14.8,1.7c-0.7,0-1.3,0-2,0
	c-7.4,0.4-14.7-0.7-21.8-2.4c-7.6-1.9-15.2-4-22.1-7.9c-8.8-4.9-16.8-10.9-23.6-18.4c-1.3-1.5-2.4-3.2-3.5-4.7
	c-0.6-0.8-1.3-1.6-1.9-2.3c-0.4,0.1-0.8,0.1-0.9,0.2c-2.6,3.3-5.1,6.7-7.9,9.8c-1.8,2.1-4,3.9-6.1,5.5c-4.6,3.5-9.2,7-14.4,9.6
	c-6.1,3.1-12.6,5-19.3,6.5c-5.7,1.3-11.5,2.7-17.4,2.5c-1.9-0.1-3.9,0.8-5.8,0.6c-6.9-0.7-13.8-1.4-20.5-3.1c-8-2-15.9-4.4-23.1-8.6
	c-8.4-4.8-16.1-10.6-22.4-18c-3.6-4.3-6.5-9.3-9.7-13.9c-0.6-0.9-1.3-1.6-1.9-2.3c-15.8,0-31.3,0-47,0c-1.7,4.4-4.7,7.7-9.1,9.7
	c-2.6,1.2-7.1,1.5-10.3,0.5c-6.2-2-10.9-6.3-11.4-14.8c-0.5-8.1,6.2-14.6,11.4-15.6c6.7-1.3,13.5-1.4,19.8,10.6c14.2,0,28.4,0,43,0
	c-0.6-2.6-1.1-5-1.7-7.4c-1-4.3-2.4-8.6-3-12.9c-0.7-4.9-1.1-10-0.8-14.9c0.2-5,1.3-10,2.1-15c-3.1-0.7-59.2-1-70.2-0.4
	c-7.9,17.8-22,20.7-32.5,18.6C12.6,235.4,5,224.9,4,212.6C2.9,198,12.3,186,26.3,182.8c7.3-1.7,14.4-0.2,20.9,3.6
	c6.5,3.8,10,10,12.7,16.5c24.9,0,49.5,0,74.4,0c11.6-25.8,31.1-42.3,59.1-48.9c-3.8-5.2-7.6-10.3-11.5-15.5
	c-5.2,5.2-10.1,10.1-15.1,15.2c-20.4,0-40.8,0-61.1,0c-5.2,11.1-11.9,12.7-20.3,11c-5.6-1.1-11.2-8.4-11.1-14.8
	c0.1-3.4,0.8-7,3.1-9.9c2.2-2.8,4.9-4.6,8.4-5.6c7.6-2.2,13.9,0.8,19.6,9.7c19.2,0,38.5,0,57.6,0c4.8-4.8,9.4-9.4,14.5-14.6
	c0,0,0.2-0.9-0.1-1.5c-3-7.3-4.3-15-6-22.7c-0.7-3-0.6-6.2-0.9-9.4c-0.1-1-0.1-2.1-0.2-3.3c-6,0-11.7,0-17.9,0
	c-0.7,1.1-1.4,2.4-2.3,3.7c-2.5,3.5-5.8,5.7-10.3,6.6c-3.7,0.7-7,0.2-10.2-1.5c-3.2-1.7-5.7-4.2-7.1-7.7c-4.1-10.2,2.4-22,14.1-22
	c6.7,0,11.6,3,14.6,9c0.3,0.7,0.7,1.4,1.2,2.2c6.1,0,12.1,0,18.2,0c1.2-5.5,2.4-11,3.7-16.4c2.2-9,5.7-17.4,11.3-24.9
	c3.1-4.1,6-8.3,9.7-11.9c4.8-4.8,10.4-8.5,16-12.1c8-5.2,17.1-7.8,26.3-10.1c9-2.3,18.2-3,27.4-2.3c4.5,0.3,9,1.4,13.5,2.4
	c4.4,1.1,8.8,2.5,13.1,3.8c5.6,1.7,10.6,4.6,15.3,8c2.2,1.6,4.5,3.1,7.2,4.9c0.4-3.2,0.2-6.1,0.2-8.9c0-2.8,0-5.6,0-8.6
	c0.9-0.1,1.8-0.3,2.7-0.3c27.6,0,55.1,0,82.7,0c25,0,50.1,0.1,75.1-0.1c7.2,0,14.1,1,20.9,2.9c3.4,1,6.8,1.9,10.1,3
	c5,1.7,9.3,4.9,13.5,8c2.4,1.8,4.6,3.8,7.1,5.9c0-6.5,0-12.9,0-19.2c3.3-0.9,57.8-1.2,77.7-0.5c0.4,3.4,0.2,6.8,0.2,10.2
	c0.1,3.6,0,7.2,0,10.7c0,3.4,0,6.9,0,10.2c0.2,0.2,0.3,0.3,0.4,0.4c0.1,0.1,0.2,0.2,0.3,0.2c16.3,0,32.6,0.1,48.9,0.1
	c0.9,0,1.8,0,2.6,0c6.7-12.3,14-12.4,20.9-10.4c7,2.1,11.2,8.9,10.3,17c-0.9,7.5-4.7,12.1-14,13.6c-5.8,1-12.6-1.7-16.6-10.7
	c-17.4,0-34.9,0-52.4,0c-0.6,3.1-0.8,49.5-0.2,56.2c4.9,0.5,9.9,0,14.9,0.1c5.2,0.1,10.3,0,15.5,0c5,0,10,0,15.4,0
	c0,3.4,0,6.7,0,9.8c3.4,0.8,16.9,1,28.6,0.5c10.6-10.6,21.2-21.2,31.7-31.7c20.7,0,40.9,0,61.1,0c1.4-2,2.6-3.9,3.9-5.6
	c4.3-5.7,11.3-7,17.7-4.6c4.7,1.7,10,7.5,9.8,14c-0.1,4.9-1.1,9.3-4.9,12.4c-3.8,3-8,5-13.4,3.9c-6.3-1.2-9.8-5-12.5-10.4
	c-19.2,0-38.5,0-58,0c-10.2,10.2-20.5,20.5-30.9,30.9c-10.9,0-21.7,0-32.5,0c-0.6,3.2-0.7,21-0.2,27c3,0,6,0.1,9,0.1
	c3.2,0,6.4,0,9.5,0c3,0,6.1,0,9.1,0c3,0,6.1,0,9.4,0c0,3.7,0,7.2,0,10.9c9.1,0,17.8,0,26.7,0c0.4-0.8,0.8-1.8,1.3-2.7
	c2.5-4.6,5.9-7.6,11.4-8.5c3.5-0.6,6.5,0,9.5,1.3c3.1,1.3,5.5,3.7,7,6.7c5.3,10.2-1.3,23.4-13.8,23.2c-6.4-0.1-11-2.9-14.1-8.4
	c-0.3-0.6-0.6-1.1-1-1.8c-8.8,0-17.7,0-26.5,0c-0.6,3.1-0.9,45.5-0.3,54.4c0.1,0.1,0.2,0.2,0.3,0.2c0.1,0.1,0.2,0.1,0.4,0.1
	c32.7,0,65.5,0.1,98.2,0.1C787.6,226.1,788.4,226,789.1,226z M423.9,238.7c0.6-7.2-0.6-14.1-2.5-21c-2.4-8.9-6.5-16.8-12.6-23.8
	c-8.5-9.6-19-16.1-31.4-19.3c-6.2-1.6-12.5-2.8-18.9-2.7c-2.9,0.1-5.7,0.3-8.6,0.6c-5.1,0.4-10,1.7-14.9,3.3
	c-11.7,3.6-21.1,10.6-28.9,19.8c-1.9,2.2-3.4,4.6-4.9,7.1c-6.7,11.1-8.8,23.4-9.3,36.1c-0.2,3.9,0.1,7.9,0.8,11.8
	c1.4,7.7,3.5,15.2,7.2,22.3c4.7,8.8,11.2,15.9,19.3,21.4c9.9,6.8,21.2,10.2,33,11.3c6,0.5,12.1,0.4,18.1-0.7
	c9.8-1.9,19.2-5.3,27.4-11.2c5-3.5,9.5-7.7,13.2-12.5c3.5-4.6,6.5-9.5,8.4-15.1c2.5-7.1,4.4-14.2,4.5-21.7
	C424,242.4,423.9,240.6,423.9,238.7z M317.5,72.5c-0.4-1.1-0.7-1.7-0.9-2.3c-1.2-6-3.2-11.5-6.4-16.7c-5.2-8.4-12.1-14.8-20.8-19.5
	c-9.5-5.1-19.9-7.1-30.6-7.6c-3-0.1-6-0.1-9,0.6c-2.5,0.6-5.2,0.5-7.7,1.1c-7.4,1.8-14.5,4.4-21,8.5c-6.2,3.9-11.5,8.8-16.1,14.5
	c-3.8,4.6-6.4,9.9-8.6,15.4c-2.4,6.4-4,13-4.1,19.8c-0.1,4.2,0,8.5,0,12.7c0,1.2,2.4,15.3,4.8,20.9c2.4,5.6,5.3,10.9,9.4,15.4
	c6.7,7.5,14.3,13.5,23.7,17.3c8.6,3.5,17.6,4.9,26.7,5.6c2.3,0.2,4.7-0.5,7-0.5c5.3-0.1,10.4-1.2,15.4-2.6c7.7-2.1,14.6-5.8,20.7-11
	c6.6-5.7,11.5-12.6,14.5-20.8c2.6-7,4.3-14.2,4.4-21.7c0-1.8,0.1-13.6,0-16c0-0.9-0.2-1.8-0.3-2.6c-8.9-0.6-57.9-0.4-60.9,0.3
	c-0.6,7.9-0.3,26,0.4,29c8.3,0,16.6,0,25,0c0.1,0,0.2,0.1,0.3,0.2c0.1,0.1,0.2,0.2,0.4,0.4c-2.4,5.3-6.2,9.5-11.6,11.7
	c-4.7,2-9.8,2.5-15,2.6c-1.4,0-2.8-0.6-4.2-0.7c-4.3-0.3-8.2-1.7-11.7-4c-9.5-6.1-13.5-15.4-14.6-26.1c-0.5-4.3-0.1-8.6,0.7-13
	c1.3-7.1,4.4-13.2,9.4-18.2c4.3-4.3,9.8-7.2,16-7.7c6.3-0.5,12.6-0.5,18.6,2.2c3.7,1.7,6.8,4,9.2,7.2c1.3,1.8,2.5,3.7,3.7,5.5
	C295.2,72.5,306.1,72.5,317.5,72.5z M491.5,156.7c7.6,0.5,34.1,0.3,37.2-0.3c0.1-2.3,0.6-4.7-0.8-6.9c-5.3-8.6-10.6-17.2-15.9-25.8
	c-2.6-4.2-5.2-8.5-7.8-12.7c0.7-0.6,1.3-1.2,1.9-1.7c5.4-3.8,9.2-9.1,12-14.9c3.3-6.8,4.6-14.1,4.4-21.7c-0.2-7.8-1.8-15-5.4-21.9
	c-4.2-8-10.6-13.8-18.4-17.9c-6.8-3.5-14.4-4.8-22-4.9C458.9,27.9,441,28,423.1,28c-1,0-2,0.1-3.2,0.2c0,1,0,1.8,0,2.6
	c0,41.7,0.1,83.5,0.1,125.2c0,0.1,0.1,0.2,0.1,0.4c0.1,0.1,0.2,0.2,0.3,0.3c7.7,0.5,29.9,0.3,33-0.4c0-4.2,0-8.4,0-12.6
	c0-4.1,0-8.2,0-12.3c0.1-4.2-0.2-8.4,0.2-12.5c5.5,0,10.7,0,16.1,0C476.9,131.3,484.2,143.9,491.5,156.7z M448.6,303.2
	c1.8,0,3.1,0,4.4,0c13.5,0,27,0.1,40.5,0c4.5,0,8.9-0.4,13.4-0.8c1.9-0.2,3.9-0.5,5.7-1c7.4-2,14.4-4.7,20.8-9.1
	c7.9-5.5,13.9-12.4,18.5-20.7c4.9-9,7-18.8,8-28.9c0.5-5.3-0.2-10.6-0.9-15.7c-1.2-8.1-4-15.7-8-22.8c-2.8-5.1-6.3-9.8-10.6-13.7
	c-5.4-4.8-11.3-8.9-18.2-11.5c-6.8-2.5-13.8-4.3-20.9-4.5c-16.7-0.3-33.4-0.1-50.1-0.1c-0.9,0-1.7,0.2-2.6,0.3
	C448.6,217.5,448.6,260.2,448.6,303.2z M276.1,222c-0.4-1.1-0.7-1.7-0.8-2.3c-0.5-4-1.7-7.8-3.1-11.7c-4.8-12.8-13.7-21.6-25.4-28
	c-8-4.4-16.9-6.3-25.9-7.2c-6-0.6-12.2-0.4-18.1,0.8c-8.2,1.7-16.1,4.2-23.4,8.6c-10.2,6.2-18,14.5-23.3,25.1
	c-3.8,7.4-5.9,15.4-6.5,23.6c-0.8,10.9,0.1,21.7,3.8,32.2c4.1,11.4,11,20.7,20.5,27.8c10.1,7.6,21.9,11.8,34.5,12.8
	c7.2,0.6,14.4,0.2,21.6-1.3c8.6-1.8,16.6-4.7,23.8-9.8c3.8-2.7,7.3-5.7,10.2-9.3c5.2-6.4,8.8-13.6,10.7-21.6
	c0.7-2.8,1.8-5.7,1.1-8.8c-10.9,0-21.6,0-32.3,0c-0.6,1.7-1.1,3.4-1.9,4.9c-2.3,4.7-5.6,8.7-10.2,11.2c-6.2,3.4-12.7,4.9-19.9,3.8
	c-7-1.1-13.1-4-17.9-9.1c-6.6-7-9.1-15.7-9.7-25.1c-0.3-4.1,0.8-8.1,1.6-12c1.7-7.7,6.2-13.6,12.3-18.2c7.4-5.6,16-5.8,24.6-4.5
	c9.1,1.3,15.6,6.6,19.3,15.1c0.4,1,0.9,1.9,1.3,2.7C253.9,222,264.8,222,276.1,222z M583.8,303.2c1.1,0,1.9,0,2.7,0
	c26.4,0,52.7-0.1,79.1-0.1c0.1,0,0.2-0.1,0.4-0.1c0.1-0.1,0.2-0.2,0.3-0.3c0.6-8.1,0.3-26.8-0.4-29.8c-16.1,0-32.2,0-48.5,0
	c0-7.2,0-14.1,0-21.3c4.9,0,9.7,0,14.4,0c4.9,0,9.8,0.1,14.7,0c4.7-0.1,9.5,0.3,14.1-0.2c0.5-6.1,0.3-26.1-0.2-29.4
	c-4.7,0-9.4,0-14.2,0c-4.9,0-9.8,0-14.7,0c-4.7,0-9.4,0-14.3,0c0-3.2,0-5.9,0-8.7c0.1-2.9-0.2-5.7,0.2-8.8c15.9,0,31.5,0,47.2,0
	c0-10.1,0-20,0-29.8c-5-0.5-77.7-0.4-80.8,0.2C583.8,217.4,583.8,260,583.8,303.2z M383.3,127.4c0-22.1,0-43.8,0-65.6
	c0-1.2,0-2.4,0.1-3.6c0-0.1,0.1-0.2,0.1-0.3c0.1-0.1,0.2-0.2,0.3-0.3c4.5-0.3,9.1,0.3,13.7-0.3c0.5-8.1,0.3-26.1-0.3-29.1
	c-7.4-0.6-59.2-0.3-62.2,0.3c-0.5,6-0.3,25.9,0.3,29.1c4.8,0,9.6,0,14.5,0c0,23.4,0,46.4,0,69.7c-2.7,0-5.4-0.1-8,0
	c-2.6,0.1-5.2-0.3-7.7,0.3c-0.5,11.9-0.3,26.2,0.4,29c11,0.6,61.4,0.3,64.6-0.3c0.5-5.7,0.3-25.9-0.3-29
	C393.8,127.4,388.8,127.4,383.3,127.4z M582.4,126.6c-0.2-0.6-0.3-0.7-0.3-0.8c0-31.8,0-63.6-0.1-95.3c0-0.5,0-1.1-0.1-1.6
	c0-0.1-0.1-0.3-0.1-0.4c-0.1-0.1-0.2-0.2-0.3-0.3c-6.8-0.5-30.7-0.3-33.6,0.3c-0.6,8.2-0.3,125.1,0.3,128.1
	c6.6,0.5,76.7,0.3,79.7-0.2c0.5-5.7,0.3-26.7-0.3-29.8C612.7,126.6,597.6,126.6,582.4,126.6z M47,210.6c0.4-8.2-6.3-14.6-14.2-14.7
	c-7.9-0.1-14.5,6.3-14.7,14.3c-0.2,8.5,6.6,14.9,14.5,15C40.5,225.2,47.3,218.7,47,210.6z M748.3,305.6c7.4,0.7,14.6-6.9,14.5-14.4
	c0-7.5-7.1-14.6-14.6-14.5c-7.5,0-14.6,7.1-14.5,14.6C733.7,298.7,740.8,306.3,748.3,305.6z M816.3,219.6
	c-8.1-0.4-14.6,6.3-14.7,14.3c-0.1,7.9,6.3,14.5,14.4,14.6c8.5,0.1,14.9-6.7,14.9-14.6C830.8,226,824.4,219.2,816.3,219.6z"/>
<path d="M389.6,239.4c0.4,4.1-0.3,8.5-1.9,12.7c-3.6,9.7-10.3,16.4-20.1,19.4c-10.3,3.2-19.9,1.5-28.6-5
	c-7.6-5.7-11.3-13.5-12.2-22.8c-0.1-1.4-0.7-2.8-0.7-4.2c0.2-9.6,2.7-18.5,9.4-25.5c4.2-4.4,9.6-7.3,15.7-8.5c2.8-0.6,5.7-1,8.6-0.8
	c7.2,0.7,13.7,3,19.2,7.9C386.2,218.8,390.3,228.4,389.6,239.4z"/>
<path d="M453.5,89.2c0-10.5,0-20.5,0-30.9c1.8,0,3.5,0,5.1,0c5.8,0,11.7,0.2,17.5,0c4.6-0.2,8.1,1.7,10.4,5.3
	c2.4,3.7,4.1,7.8,2.7,12.6c-0.8,2.9-1.5,5.7-3.4,8.2c-2.6,3.3-6,4.7-9.8,4.8C468.6,89.3,461.2,89.2,453.5,89.2z"/>
<path d="M482.1,204.7c4.6,0,9-0.2,13.4,0.1c3.2,0.2,6.5,0.7,9.6,1.5c11.2,3,17.1,11.2,20.3,21.6c1,3.2,1.4,6.6,1.6,10
	c0.3,4.1-0.9,8-1.8,12c-1.3,5.4-4,10-7.7,14c-3.5,3.8-8,6.3-13.1,7.6c-2.4,0.6-4.9,0.8-7.4,0.8c-4.9,0-9.8,0-14.6,0
	C481.8,269,481.6,212.4,482.1,204.7z"/>
<path d="M748.8,301.6c-6.6,0.6-10.7-5.7-10.6-10.8c0.1-5.5,3.2-9.6,10.1-9.8c5.6-0.2,10.3,4.4,10.2,10.2
	C758.4,297.8,754.6,301.9,748.8,301.6z"/>
<path d="M816.3,244.3c-7.2,0.3-10.4-5.3-10.5-10.8c-0.1-6.5,5.4-9.9,10.1-9.9c6.3,0,11,4.9,11.2,10.7
	C827.2,239.5,822.4,244.9,816.3,244.3z"/>
</svg>
